# xmcd
#
# Track frame offsets:
#	150
#	14117
#	30314
#	40946
#	59684
#	76383
#	94385
#	112140
#	127369
#	142204
#	156918
#	171095
#	188045
#	203437
#	220572
#	235274
#	248423
#
# Disc length: 3534 seconds
#
# Revision: 1
# Processed by: cddbd v1.5.2PL0 Copyright (c) Steve Scherf et al.
# Submitted via: audiograbber 1.83.01
#
DISCID=f40dcc11
DTITLE=CDX - 456
DYEAR=2008
DGENRE=Country
TTITLE0=Chris Cagle - Never Ever Gone
TTITLE1=Laura Bryna - Hometown Heroes
TTITLE2=Patty Loveless - Why Baby Why
TTITLE3=Melissa Jones - How Far Would You Go
TTITLE4=Buddy Jewell - This Ain't Mexico
TTITLE5=Steve Azar - You're My Life
TTITLE6=Darren Hincks "The Rider" - Blind Man At The Wheel
TTITLE7=Or The Whale - Call And Response
TTITLE8=Tim Cooper - I Tripped Over Your Memory
TTITLE9=Jeff Tuttle - Livin' Like A Millionaire (Ain't Got A Dime)
TTITLE10=Jeff Miller - Meant To
TTITLE11=Austin Law - Neon
TTITLE12=River Country - Rockin' The Country
TTITLE13=Shawna Russell - Should've Been Born With Wheels
TTITLE14=Sammy Sadler - Thank God
TTITLE15=Desiree G Stephens - Treat Me Like A Lady
TTITLE16=Jason Grainger - Undefeated Champion
EXTD=
EXTT0=
EXTT1=
EXTT2=
EXTT3=
EXTT4=
EXTT5=
EXTT6=
EXTT7=
EXTT8=
EXTT9=
EXTT10=
EXTT11=
EXTT12=
EXTT13=
EXTT14=
EXTT15=
EXTT16=
PLAYORDER=
